<?xml version="1.0" encoding="utf-8"?>
<!-- Generator: Adobe Illustrator 17.0.0, SVG Export Plug-In . SVG Version: 6.00 Build 0)  -->
<!DOCTYPE svg PUBLIC "-//W3C//DTD SVG 1.1//EN" "http://www.w3.org/Graphics/SVG/1.1/DTD/svg11.dtd">
<svg version="1.1" xmlns="http://www.w3.org/2000/svg" xmlns:xlink="http://www.w3.org/1999/xlink" x="0px" y="0px" width="500px"
	 height="500px" viewBox="0 0 500 500" enable-background="new 0 0 500 500" xml:space="preserve">
<g id="Layer_1" display="none">
	<g display="inline">
		<rect x="-10" y="-10" fill="none" stroke="#4D4D4D" stroke-miterlimit="10" width="520" height="520"/>
	</g>
	<g display="inline">
		<g>
			<path fill="#FFFFFF" d="M422.881,412.433c0-115.721,0-231.441,0-347.231c-107.237,0-214.494,0-321.866,0
				c0,115.698,0,231.464,0,347.231C208.257,412.433,315.559,412.433,422.881,412.433z M253.906,401.018
				c-5.225-0.376-14.796-0.786-24.294-1.845c-6.695-0.747-13.386-2.006-19.916-3.671c-40.404-10.305-70.183-32.226-83.448-73.804
				c-13.211-41.405-16-82.73-2.704-124.436c14.31-44.888,41.555-80.838,77.623-110.57c13.116-10.812,27.877-13.512,44.172-10.225
				c14.067,2.838,26.729,9.216,39.179,15.892c56.819,30.468,94.323,77.324,115.367,137.717
				c7.907,22.691,14.357,45.758,11.587,70.349c-2.058,18.262-7.688,35.059-18.791,49.83c-13.64,18.145-32.069,29.58-52.899,37.68
				C313.529,398.143,286.036,400.399,253.906,401.018z"/>
			<path d="M253.906,401.018c32.13-0.618,59.623-2.875,85.875-13.084c20.831-8.1,39.26-19.535,52.899-37.68
				c11.103-14.77,16.734-31.568,18.791-49.83c2.771-24.591-3.68-47.658-11.587-70.349c-21.044-60.394-58.548-107.25-115.367-137.717
				c-12.45-6.676-25.112-13.054-39.179-15.892c-16.295-3.287-31.057-0.587-44.172,10.225
				c-36.067,29.732-63.312,65.682-77.623,110.57c-13.296,41.706-10.506,83.031,2.704,124.436
				c13.266,41.578,43.044,63.499,83.448,73.804c6.531,1.666,13.221,2.925,19.916,3.671
				C239.111,400.232,248.681,400.641,253.906,401.018z M226.406,275.86c-0.345,0.479-0.69,0.959-1.035,1.438
				c1.175,1.191,2.147,3.036,3.556,3.473c17.459,5.419,35.04,10.071,53.654,8.248c18.08-1.77,28.375-15.34,24.899-33.139
				c-0.854-4.374-2.177-8.755-2.249-13.15c-0.055-3.347,0.55-7.553,2.569-9.924c5.59-6.567,13.81-6.756,19.818-0.497
				c4.273,4.452,8.168,9.56,11.036,15.006c5.681,10.788,4.133,21.249-3.707,30.616c-7.149,8.541-16.375,14.049-26.687,17.953
				c-16.521,6.254-27.457,17.314-29.883,35.432c-0.608,4.541-0.407,9.203-1.182,13.705c-1.99,11.567-7.465,19.725-20.035,22.58
				c-18.817,4.275-37.363,5.682-55.681-1.534c-22.354-8.806-37.299-25.507-46.03-47.198c-12.867-31.963-15.814-65.318-9.647-99.254
				c6.016-33.105,20.884-62.012,43.682-86.604c7.31-7.885,15.549-15.373,24.599-21.081c16.895-10.656,35.08-8.616,53.038-2.003
				c17.09,6.294,29.699,18.714,41.885,31.442c24.833,25.938,42.886,56.363,57.213,89.073c7.976,18.21,15.963,36.532,18.701,56.432
				c2.708,19.676-1.962,37.322-16.739,51.42c-14.689,14.014-32.807,20.696-52.458,23.736c-5.392,0.834-10.808-3.059-13.112-8.66
				c-0.869-2.114-1.533-4.332-2.083-6.554c-3.34-13.489,1.662-24.176,14.058-30.463c15.653-7.939,28.289-19.111,36.566-34.791
				c4.605-8.724,7.334-17.95,6.24-27.946c-1.317-12.021-7.655-21.21-16.845-28.562c-10.051-8.04-21.115-13.926-34.372-14.182
				c-9.708-0.188-15.837,4.426-17.053,13.44c-0.562,4.165,0.109,8.632,0.942,12.818c1.141,5.728,3.159,11.275,4.463,16.976
				c2.785,12.179-4.828,23.088-16.636,25.141c-11.796,2.051-23.396,0.986-35.039-0.609
				C237.345,277.885,231.886,276.797,226.406,275.86z"/>
			<path fill="#FFFFFF" d="M226.406,275.86c5.48,0.937,10.939,2.026,16.444,2.78c11.643,1.594,23.243,2.66,35.039,0.609
				c11.808-2.053,19.421-12.962,16.636-25.141c-1.304-5.702-3.323-11.249-4.463-16.976c-0.834-4.186-1.504-8.653-0.942-12.818
				c1.216-9.014,7.346-13.627,17.053-13.44c13.257,0.256,24.321,6.142,34.372,14.182c9.191,7.352,15.529,16.541,16.845,28.562
				c1.095,9.996-1.635,19.222-6.24,27.946c-8.277,15.68-20.913,26.852-36.566,34.791c-12.395,6.287-17.397,16.974-14.058,30.463
				c0.55,2.222,1.214,4.44,2.083,6.554c2.304,5.602,7.72,9.495,13.112,8.66c19.651-3.04,37.768-9.722,52.458-23.736
				c14.778-14.098,19.447-31.744,16.739-51.42c-2.739-19.9-10.725-38.222-18.701-56.432c-14.327-32.71-32.38-63.135-57.213-89.073
				c-12.186-12.728-24.795-25.149-41.885-31.442c-17.958-6.613-36.143-8.653-53.038,2.003c-9.051,5.708-17.289,13.196-24.599,21.081
				c-22.798,24.592-37.666,53.499-43.682,86.604c-6.167,33.936-3.219,67.291,9.647,99.254c8.732,21.691,23.677,38.392,46.03,47.198
				c18.318,7.216,36.864,5.809,55.681,1.534c12.571-2.856,18.046-11.013,20.035-22.58c0.774-4.502,0.574-9.164,1.182-13.705
				c2.426-18.119,13.362-29.178,29.883-35.432c10.312-3.904,19.538-9.412,26.687-17.953c7.841-9.367,9.389-19.828,3.707-30.616
				c-2.868-5.445-6.763-10.554-11.036-15.006c-6.009-6.259-14.228-6.071-19.818,0.497c-2.018,2.371-2.624,6.577-2.569,9.924
				c0.072,4.395,1.394,8.776,2.249,13.15c3.476,17.799-6.819,31.369-24.899,33.139c-18.615,1.823-36.195-2.829-53.654-8.248
				c-1.409-0.437-2.381-2.282-3.556-3.473C225.716,276.818,226.061,276.339,226.406,275.86z M235.381,158.571
				c16.989,0.128,30.631,5.333,42.698,14.973c9.466,7.562,12.613,17.942,11.642,29.271c-1.492,17.409-11.733,29.342-26.315,38.01
				c-3.717,2.21-7.35,4.563-10.993,6.896c-2.944,1.885-5.598,4.68-8.805,5.616c-14.866,4.338-28.235,1.226-39.598-9.46
				c-9.341-8.785-14.12-20.063-17.316-32.205c-3.973-15.096-0.127-27.935,10.907-38.762
				C208.514,162.202,222.285,159.299,235.381,158.571z M166.704,268.598c0.306-0.114,0.612-0.227,0.918-0.341
				c0.263-2.533,0.372-5.093,0.818-7.594c1.713-9.617,5.174-18.209,14.496-23.025c5.626-2.907,9.383-1.099,11.586,4.83
				c1.628,4.382,3.623,8.685,5.971,12.723c1.965,3.38,5.111,5.889,9.219,6.15c6.107,0.387,12.193,0.468,17.97-2.375
				c3.931-1.934,9.164-0.405,10.973,3.379c0.767,1.606,0.495,4.325-0.42,5.884c-0.537,0.915-4.092,1.376-4.873,0.605
				c-3.841-3.789-7.04-2.082-10.542,0.299c-5.367,3.65-11.355,5.263-17.8,4.3c-6.463-0.966-6.638-1.011-7.368,5.588
				c-0.195,1.764-0.213,3.591,0.003,5.35c0.48,3.917,1.837,7.563,5.296,9.755c1.194,0.756,3.091,0.404,4.666,0.558
				c0.006-1.171,0.171-2.367-0.011-3.508c-0.719-4.502,1.253-7.369,5.725-8.352c9.552-2.1,16.746,1.604,22.143,9.221
				c1.986,2.803,3.62,4.77,7.353,2.637c1.309-0.748,3.242-0.49,4.894-0.533c2.893-0.077,5.729,0.824,6.418,3.734
				c0.557,2.353,0.582,5.546-0.611,7.462c-3.419,5.491-9.008,7.801-15.365,7.465c-1.679-0.089-3.49-1.729-4.835-3.065
				c-1.603-1.593-2.572-3.836-4.211-5.376c-0.823-0.773-2.742-1.141-3.761-0.719c-0.933,0.387-1.694,2.032-1.862,3.218
				c-0.227,1.598-0.026,3.339,0.367,4.926c0.895,3.612-0.52,6.239-3.223,8.358c-6.883,5.398-17.056,5.36-23.701-0.376
				c-10.052-8.677-18.579-18.713-23.9-30.947C170.237,282.386,168.773,275.361,166.704,268.598z"/>
			<path d="M235.381,158.571c-13.096,0.728-26.868,3.631-37.78,14.338c-11.034,10.828-14.88,23.667-10.907,38.762
				c3.195,12.142,7.975,23.42,17.316,32.205c11.363,10.687,24.732,13.798,39.598,9.46c3.207-0.936,5.862-3.731,8.805-5.616
				c3.643-2.333,7.276-4.686,10.993-6.896c14.582-8.668,24.823-20.601,26.315-38.01c0.971-11.329-2.177-21.709-11.642-29.271
				C266.012,163.904,252.371,158.699,235.381,158.571z M242.821,206.02c3.649,1.578,7.542,2.776,10.84,4.899
				c1.557,1.002,2.71,3.746,2.788,5.75c0.435,11.142-8.354,18.298-20.007,16.621c-6.154-0.886-9.6-4.07-9.954-9.197
				C225.849,214.837,233.165,206.96,242.821,206.02z"/>
			<path d="M166.704,268.598c2.068,6.762,3.532,13.787,6.335,20.231c5.321,12.235,13.848,22.271,23.9,30.947
				c6.645,5.736,16.817,5.774,23.701,0.376c2.703-2.12,4.118-4.746,3.223-8.358c-0.393-1.587-0.594-3.328-0.367-4.926
				c0.169-1.186,0.929-2.831,1.862-3.218c1.019-0.423,2.938-0.054,3.761,0.719c1.639,1.54,2.608,3.784,4.211,5.376
				c1.345,1.336,3.155,2.976,4.835,3.065c6.357,0.337,11.946-1.974,15.365-7.465c1.193-1.916,1.168-5.109,0.611-7.462
				c-0.689-2.91-3.525-3.81-6.418-3.734c-1.652,0.044-3.585-0.215-4.894,0.533c-3.733,2.133-5.366,0.166-7.353-2.637
				c-5.397-7.617-12.591-11.321-22.143-9.221c-4.472,0.983-6.443,3.85-5.725,8.352c0.182,1.141,0.016,2.337,0.011,3.508
				c-1.576-0.154-3.472,0.198-4.666-0.558c-3.46-2.192-4.816-5.837-5.296-9.755c-0.216-1.759-0.198-3.585-0.003-5.35
				c0.73-6.6,0.905-6.554,7.368-5.588c6.445,0.963,12.433-0.651,17.8-4.3c3.501-2.381,6.7-4.088,10.542-0.299
				c0.781,0.771,4.336,0.31,4.873-0.605c0.915-1.558,1.188-4.278,0.42-5.884c-1.808-3.785-7.042-5.314-10.973-3.379
				c-5.777,2.843-11.864,2.762-17.97,2.375c-4.108-0.26-7.254-2.77-9.219-6.15c-2.348-4.038-4.343-8.341-5.971-12.723
				c-2.203-5.93-5.96-7.737-11.586-4.83c-9.322,4.816-12.783,13.408-14.496,23.025c-0.445,2.5-0.554,5.061-0.818,7.594
				C167.317,268.371,167.01,268.485,166.704,268.598z"/>
			<path fill="#FFFFFF" d="M242.821,206.02c-9.656,0.94-16.972,8.817-16.333,18.072c0.354,5.127,3.8,8.312,9.954,9.197
				c11.653,1.677,20.443-5.478,20.007-16.621c-0.078-2.004-1.231-4.748-2.788-5.75C250.363,208.796,246.47,207.597,242.821,206.02z"
				/>
		</g>
	</g>
</g>
<g id="Layer_2">
	<rect fill="#FFFFFF" width="500" height="500"/>
	<path fill="#b0392b" d="M278.379,234c0,0,4.375-2,24.375-22s10.5-54-11-60.5s-37-15.5-66.5,0s-20,39-12.5,51.5s18.451,35.419,41.5,35.5
		C273.004,238.566,278.379,234,278.379,234z"/>
	<path fill="#FFFFFF" d="M280.004,197.25c0,0-7.167-10.75-20.583-5.5c-13.417,5.25-7.417,21.75-3.167,23
		c4.25,1.25,19.75,2.25,23.75-10.5V197.25z"/>
	<path fill="#b0392b" d="M214.92,222.017c0,0-15.333-14.35-22.333,25.317c0,0,0.029,27.952,26.333,53.333c19,18.333,29.667,0,29.667,0
		s-4.208-9.042,1.542-12.917s9.875,7.875,9.875,7.875s10.122,7.046,18.125-6.625c6-10.25-7-11.125-7-11.125s-3.75-0.875-8.125,1.5
		s-7.125-8.375-8.5-8.75s-10.25-9.875-21.375-0.25c0,0-3.5,1-0.875,8.375c0,0-14.625,0.875-9-21.625c0,0,1.625,0.625,13.625,0
		s11.375-5.375,14.25-6.25c0,0,1.125-3.25,7.5,2.25c0,0,11-1.375,1.75-9.75c0,0-4.25-3.5-11.625,0.875c0,0-15,4.75-22.625-3.375
		C226.129,240.875,220.087,230.283,214.92,222.017z"/>
	<path fill="#b0392b" d="M250.379,262.5c0,0,147.375-57.5,77.875-113.5s-129.5-2.5-153.5,24.5s-36,165,70.5,162.5s119.5-42,119.5-42v55.5
		c0,0-154.754,6.167-183,0C90.844,329.653,128.25,179,139.5,159c12.664-22.514,72.754-76.5,154.254-49s101.5,75.5,81,100.5
		S250.379,262.5,250.379,262.5z"/>
</g>
</svg>
